<?xml version="1.0" encoding="UTF-8"?>
<svg xmlns="http://www.w3.org/2000/svg" xmlns:xlink="http://www.w3.org/1999/xlink" width="256px" height="256px" viewBox="0 0 256 255" version="1.1">
<g id="surface1">
<path style=" stroke:none;fill-rule:nonzero;fill:rgb(97.647059%,54.901963%,20.784314%);fill-opacity:1;" d="M 122.152344 17.359375 L 123.453125 18.117188 C 134.628906 26.664062 142.566406 38.671875 144.613281 52.644531 C 145.472656 59.816406 144.753906 67.140625 142.457031 74 C 143.960938 73.175781 144.707031 72.703125 145.675781 71.253906 C 146.15625 70.839844 146.644531 70.4375 147.144531 70.050781 C 151.917969 66.035156 154.292969 60.957031 155.636719 55.007812 C 155.988281 53.4375 156.355469 52.039062 157.171875 50.640625 C 168.847656 62.988281 175.253906 76.007812 175.105469 93.238281 C 174.597656 108.378906 167.96875 120.960938 157.085938 131.28125 C 152.941406 134.933594 148.402344 137.550781 143.4375 139.925781 L 142.34375 140.449219 L 141.285156 140.9375 C 140.976562 141.082031 140.671875 141.222656 140.355469 141.367188 C 138.789062 141.953125 137.191406 142.316406 135.5625 142.699219 L 136.683594 142.707031 L 105.667969 143.027344 L 103.9375 142.234375 L 102.300781 141.375 C 90.050781 137.691406 78.515625 128.890625 72.40625 117.570312 C 66.640625 106.28125 65.148438 92.894531 69.023438 80.734375 C 72.503906 70.695312 78.945312 63.074219 86.335938 55.621094 L 87.257812 54.683594 L 88.128906 53.816406 L 88.910156 53.03125 C 91.433594 50.617188 91.953125 50.085938 92.828125 49.324219 C 99.207031 43.144531 102.855469 33.738281 103.144531 24.964844 C 102.859375 17.132812 99.726562 10.152344 95.097656 3.925781 Z M 122.152344 17.359375 "/>
<path style=" stroke:none;fill-rule:nonzero;fill:rgb(98.823529%,60.000002%,21.568628%);fill-opacity:1;" d="M 173.957031 40.164062 L 189.128906 40.164062 L 189.128906 56.195312 L 173.957031 56.195312 Z M 173.957031 40.164062 "/>
<path style=" stroke:none;fill-rule:nonzero;fill:rgb(5.882353%,23.921569%,36.078432%);fill-opacity:1;" d="M 97.253906 165.492188 L 98.597656 165.488281 L 100.066406 165.503906 L 101.617188 165.503906 C 103.3125 165.503906 105.003906 165.511719 106.699219 165.523438 C 107.871094 165.527344 109.046875 165.527344 110.21875 165.53125 C 112.996094 165.535156 115.769531 165.546875 118.542969 165.558594 C 121.703125 165.574219 124.863281 165.582031 128.023438 165.589844 C 134.519531 165.605469 141.019531 165.628906 147.515625 165.660156 C 147.925781 167.457031 147.964844 168.417969 147.296875 170.152344 L 146.820312 171.417969 L 146.308594 172.730469 C 145.8125 174.03125 145.320312 175.332031 144.832031 176.636719 C 144.480469 177.550781 144.109375 178.453125 143.714844 179.351562 C 141.40625 184.9375 141.078125 190.875 140.445312 196.832031 C 140.3125 198.039062 140.179688 199.242188 140.042969 200.449219 C 139.757812 202.972656 139.480469 205.5 139.207031 208.023438 C 138.605469 213.515625 137.992188 219.007812 137.367188 224.496094 C 137.128906 226.609375 136.894531 228.71875 136.664062 230.832031 L 136.285156 234.171875 L 136.125 235.675781 C 135.503906 241.105469 134.984375 245.511719 130.648438 249.128906 C 126.035156 251.554688 119.988281 251.433594 115 250.277344 C 112.632812 249.5 110.875 248.308594 109.210938 246.46875 C 107.316406 242.628906 106.816406 238.28125 106.371094 234.066406 L 106.199219 232.550781 C 106.078125 231.472656 105.960938 230.394531 105.84375 229.316406 C 105.65625 227.605469 105.464844 225.894531 105.273438 224.183594 C 104.832031 220.246094 104.398438 216.308594 103.964844 212.367188 C 103.53125 208.464844 103.097656 204.5625 102.660156 200.660156 C 102.472656 198.980469 102.289062 197.304688 102.109375 195.628906 L 101.757812 192.515625 L 101.613281 191.121094 C 101.070312 186.386719 99.921875 181.917969 98.117188 177.507812 L 97.6875 176.441406 C 97.414062 175.753906 97.132812 175.0625 96.855469 174.375 C 96.367188 173.171875 95.890625 171.960938 95.414062 170.753906 C 94.910156 169.488281 94.34375 168.246094 93.71875 167.03125 C 94.832031 165.675781 95.519531 165.488281 97.253906 165.492188 Z M 97.253906 165.492188 "/>
<path style=" stroke:none;fill-rule:nonzero;fill:rgb(99.607843%,67.450982%,19.607843%);fill-opacity:1;" d="M 121.308594 61.234375 C 121.867188 62.910156 121.582031 63.53125 121.105469 65.210938 C 119.453125 72.074219 120.117188 78.824219 123.832031 84.949219 C 126.238281 88.472656 129.003906 91.394531 132.140625 94.265625 C 138.945312 100.515625 143.566406 106.890625 144.441406 116.355469 C 144.6875 123.011719 142.972656 129.894531 138.496094 134.960938 C 135.910156 137.65625 133.292969 140.167969 129.640625 141.269531 L 128.554688 141.605469 L 127.746094 141.84375 L 127.746094 142.757812 C 120.3125 143.253906 114.394531 143.445312 108.433594 138.636719 L 107.65625 138.011719 C 105.972656 136.628906 104.433594 135.152344 102.914062 133.597656 L 101.871094 132.554688 C 95.359375 125.699219 92.121094 115.753906 92.226562 106.402344 L 92.238281 105.125 C 92.476562 90.410156 100.929688 79.046875 111.125 69.097656 C 114.285156 66.140625 117.738281 63.671875 121.308594 61.234375 Z M 121.308594 61.234375 "/>
<path style=" stroke:none;fill-rule:nonzero;fill:rgb(5.882353%,23.921569%,36.078432%);fill-opacity:1;" d="M 79.140625 142.632812 L 80.175781 142.636719 L 81.269531 142.628906 C 82.488281 142.625 83.707031 142.625 84.929688 142.625 L 87.542969 142.617188 C 89.914062 142.609375 92.285156 142.605469 94.660156 142.605469 C 96.636719 142.605469 98.613281 142.601562 100.59375 142.597656 C 105.257812 142.589844 109.925781 142.589844 114.589844 142.589844 C 119.40625 142.589844 124.226562 142.578125 129.042969 142.566406 C 133.175781 142.554688 137.308594 142.546875 141.4375 142.546875 C 143.90625 142.546875 146.378906 142.546875 148.847656 142.535156 C 151.167969 142.527344 153.492188 142.527344 155.816406 142.535156 C 156.667969 142.535156 157.523438 142.53125 158.375 142.527344 C 159.539062 142.519531 160.703125 142.523438 161.863281 142.53125 L 162.894531 142.515625 C 164.480469 142.539062 165.308594 142.652344 166.589844 143.628906 C 167.289062 144.589844 167.289062 144.589844 167.347656 145.566406 L 167.085938 146.679688 L 166.785156 148.003906 L 166.367188 149.628906 C 166.195312 150.351562 166.023438 151.074219 165.851562 151.796875 C 165.660156 152.574219 165.46875 153.347656 165.277344 154.121094 L 165.003906 155.25 C 164.289062 157.988281 163.460938 160.191406 161.082031 161.910156 C 159.046875 162.871094 157.332031 162.96875 155.082031 162.976562 L 154.167969 162.980469 C 153.15625 162.984375 152.148438 162.984375 151.136719 162.984375 L 148.964844 162.992188 C 146.996094 162.996094 145.03125 163 143.0625 163.003906 L 139.375 163.007812 C 135.527344 163.015625 131.675781 163.019531 127.828125 163.019531 C 123.390625 163.023438 118.949219 163.03125 114.507812 163.042969 C 111.074219 163.054688 107.640625 163.058594 104.207031 163.058594 C 102.15625 163.058594 100.105469 163.0625 98.058594 163.070312 C 96.128906 163.078125 94.199219 163.078125 92.269531 163.074219 C 91.5625 163.074219 90.855469 163.074219 90.152344 163.082031 C 89.183594 163.085938 88.214844 163.082031 87.25 163.078125 L 85.609375 163.082031 C 83.527344 162.851562 81.695312 162.246094 80.058594 160.882812 C 78.980469 159.476562 78.1875 158.179688 77.625 156.5 L 76.9375 153.980469 C 76.367188 152.347656 76.367188 150.59375 76.011719 149.304688 C 75.617188 147.460938 75.550781 145.546875 75.785156 143.675781 C 76.925781 142.539062 77.585938 142.644531 79.140625 142.632812 Z M 79.140625 142.632812 "/>
<path style=" stroke:none;fill-rule:nonzero;fill:rgb(98.823529%,60.000002%,21.568628%);fill-opacity:1;" d="M 154.875 23.21875 L 170.046875 23.21875 L 170.046875 39.25 L 154.875 39.25 Z M 154.875 23.21875 "/>
<path style=" stroke:none;fill-rule:nonzero;fill:rgb(98.823529%,60.000002%,21.568628%);fill-opacity:1;" d="M 175.21875 10.050781 L 186.023438 10.050781 L 186.023438 21.464844 L 175.21875 21.464844 Z M 175.21875 10.050781 "/>
</g>
</svg>
