<svg width="418.00" height="836.00" viewBox="216.00 7.00 418.00 836.00" xmlns="http://www.w3.org/2000/svg">
 <g>
  <title>Faktenfackel Logo</title>
  <g id="svg_1" stroke="null">
   <path fill="#F98C35" d="m405.57813,57.86532l4.32764,2.52769c37.10614,28.49258 63.45374,68.5178 70.25665,115.08792c2.85034,23.90335 0.46869,48.31511 -7.15558,71.18648c4.98462,-2.75415 7.46552,-4.32666 10.68683,-9.16016a120.4481,120.4481 0 0 1 4.86707,-4.00754c15.84854,-13.37837 23.74609,-30.30786 28.19794,-50.13956c1.17554,-5.23196 2.39227,-9.89903 5.10223,-14.55389c38.76868,41.1595 60.03235,84.548 59.54083,141.98207c-1.68854,50.47232 -23.69116,92.4165 -59.82635,126.80981c-13.75851,12.17838 -28.83612,20.8988 -45.32434,28.81622l-3.62897,1.74805l-3.51596,1.63358c-1.0137,0.47327 -2.03046,0.94501 -3.07623,1.43054c-5.21213,1.95413 -10.50821,3.15717 -15.92337,4.44266l3.72662,0.01825l-102.97919,1.06396l-5.75256,-2.63605l-5.42484,-2.86151c-40.68323,-12.28214 -78.97565,-41.61447 -99.2699,-79.35422c-19.13399,-37.63135 -24.08961,-82.25186 -11.22882,-122.7915c11.55402,-33.46198 32.95053,-58.86 57.4783,-83.6992l3.06866,-3.1297l2.88849,-2.89461l2.59384,-2.6122c8.38309,-8.05023 10.11127,-9.81657 13.01352,-12.35547c21.18121,-20.60725 33.28644,-51.95628 34.2543,-81.20152c-0.95419,-26.10485 -11.35556,-49.37463 -26.71704,-70.13149l89.82022,44.78133l0,0.00002l0,0.00001l0,0.00003z" id="svg_2" stroke="null"/>
   <path fill="#FC9937" d="m577.58539,133.88246l50.38074,0l0,53.43413l-50.38074,0l0,-53.43413z" id="svg_13" stroke="null"/>
   <path fill="#F5F0E8" d="m322.91608,551.64484l4.45642,-0.0199l4.88235,0.05042l5.14493,-0.00153c5.62582,0.00305 11.25168,0.03815 16.8775,0.07477c3.89459,0.00769 7.79071,0.01532 11.68683,0.01984c9.21201,0.01532 18.42712,0.05194 27.63919,0.09772c10.48834,0.05042 20.97818,0.07635 31.46811,0.09924c21.57666,0.04736 43.15186,0.1283 64.72852,0.22906c1.35876,5.98914 1.48395,9.19977 -0.72668,14.97681l-1.58167,4.22437l-1.69916,4.3678a2775.70166,2775.70166 0 0 0 -4.90076,13.02423a208.37469,208.37469 0 0 1 -3.71896,9.04559c-7.66397,18.62256 -8.74796,38.42065 -10.84561,58.27374c-0.44427,4.01819 -0.89148,8.03796 -1.34338,12.05774a7790.71094,7790.71094 0 0 0 -2.77869,25.25146a11697.31641,11697.31641 0 0 1 -6.09909,54.9043c-0.79538,7.03809 -1.57098,14.07758 -2.34042,21.11865l-1.25037,11.13873l-0.5343,5.00751c-2.06714,18.09894 -3.79233,32.79333 -18.19055,44.84955c-15.30957,8.08685 -35.39014,7.67316 -51.9501,3.82288c-7.87012,-2.59698 -13.70206,-6.56781 -19.23172,-12.69751c-6.2854,-12.80127 -7.94183,-27.28802 -9.42581,-41.3335l-0.56638,-5.06256c-0.39999,-3.59387 -0.79388,-7.1861 -1.18469,-10.78149c-0.61829,-5.70215 -1.25189,-11.40277 -1.89005,-17.10345c-1.46567,-13.12646 -2.90988,-26.25598 -4.35107,-39.38556c-1.42899,-13.01044 -2.86865,-26.02087 -4.3251,-39.02826c-0.62137,-5.59076 -1.22745,-11.18298 -1.83203,-16.77368l-1.16028,-10.37689l-0.48856,-4.64423c-1.79846,-15.77527 -5.61823,-30.6803 -11.60742,-45.37317l-1.41824,-3.55414a1694.71619,1694.71619 0 0 0 -2.7695,-6.89606c-1.62128,-4.01215 -3.1983,-8.04108 -4.78165,-12.06696a139.1882,139.1882 0 0 0 -5.6304,-12.40436c3.69315,-4.51898 5.97238,-5.15106 11.7388,-5.13116z" id="svg_3" stroke="null"/>
   <path fill="#FEAC32" d="m402.77869,204.10938c1.86255,5.58769 0.91605,7.65634 -0.66718,13.2639c-5.49603,22.87434 -3.28537,45.37926 9.04565,65.78499c7.99371,11.75092 17.18134,21.48508 27.59485,31.06506c22.58893,20.82404 37.9306,42.08469 40.83282,73.6322c0.82751,22.18887 -4.86707,45.12582 -19.74005,62.01563c-8.57544,8.97995 -17.26993,17.35385 -29.39484,21.02856l-3.61371,1.12061l-2.6839,0.78778l0,3.05338c-24.67133,1.65186 -44.332,2.29001 -64.12094,-13.7402l-2.58313,-2.07782c-5.5816,-4.60751 -10.68991,-9.53259 -15.73712,-14.71716l-3.46558,-3.47635c-21.61636,-22.85608 -32.37039,-56.00049 -32.02997,-87.16928l0.03818,-4.26566c0.80304,-49.05252 28.86667,-86.922 62.71176,-120.08324c10.49448,-9.8593 21.966,-18.09277 33.81311,-26.22086l0,-0.00157l0,0.00006l0,-0.00003l0.00003,0z" id="svg_4" stroke="null"/>
   <path fill="#F5F0E8" d="m262.7691,475.4386l3.43353,0.01529l3.64117,-0.02292c4.04724,-0.01831 8.09604,-0.01529 12.14478,-0.01373l8.67923,-0.03052c7.87772,-0.0275 15.75241,-0.03513 23.63007,-0.03668c6.56635,-0.00302 13.13412,-0.01523 19.70197,-0.02441c15.49127,-0.02441 30.98257,-0.03204 46.47238,-0.03052c15.99814,0.0015 31.99481,-0.03055 47.99146,-0.07785a13492.7373,13492.7373 0 0 1 41.15649,-0.05496c8.19983,0 16.39969,-0.00766 24.60107,-0.0397c7.70975,-0.03052 15.42258,-0.03052 23.13385,-0.00766c2.83356,0.00308 5.66711,-0.00455 8.50067,-0.02277c3.86249,-0.02292 7.72351,-0.00919 11.586,0.01523l3.4137,-0.04883c5.27618,0.07175 8.02423,0.45035 12.26996,3.70068c2.32208,3.20911 2.32208,3.20911 2.5191,6.45789l-0.86407,3.71594l-1.00769,4.41208l-1.3786,5.41669c-0.57092,2.40912 -1.14197,4.81821 -1.7099,7.22733a2666.36182,2666.36182 0 0 1 -1.91602,7.75253l-0.90833,3.7572c-2.36945,9.12964 -5.1236,16.46991 -13.02264,22.19806c-6.75104,3.20605 -12.45172,3.5343 -19.91724,3.55261l-3.03503,0.01526c-3.3526,0.01233 -6.7052,0.01526 -10.0578,0.01526l-7.21518,0.02448c-6.53421,0.01984 -13.0654,0.03052 -19.59805,0.03668l-12.24866,0.01685c-12.77844,0.0213 -25.55524,0.03662 -38.33209,0.0426c-14.74326,0.00623 -29.48645,0.03357 -44.22815,0.07648c-11.40131,0.03345 -22.80267,0.04871 -34.20395,0.05188c-6.806,0 -13.61346,0.01068 -20.41946,0.03662c-6.40601,0.02594 -12.80893,0.03052 -19.21484,0.01526c-2.34659,0 -4.69305,0.0061 -7.03809,0.02142c-3.21365,0.01984 -6.42429,0.01068 -9.63644,-0.00616l-5.43808,0.00763c-6.91901,-0.76483 -12.99667,-2.78003 -18.43018,-7.33112c-3.58774,-4.68848 -6.21359,-9.01202 -8.08078,-14.61041l-2.29001,-8.39679c-1.89159,-5.43808 -1.88548,-11.28528 -3.07019,-15.57834c-1.30835,-6.1496 -1.53433,-12.53412 -0.74652,-18.77219c3.78313,-3.78317 5.96936,-3.42749 11.13107,-3.47629l0.00153,0l0,-0.00003l0,-0.00006l-0.00003,0z" id="svg_5" stroke="null"/>
   <path fill="#FC9937" d="m514.22699,77.3942l50.38068,0l0,53.43409l-50.38068,0l0,-53.43409z" id="svg_7" stroke="null"/>
   <path fill="#FC9937" d="m581.78387,33.50129l35.87701,0l0,38.05134l-35.87701,0l0,-38.05134z" id="svg_12" stroke="null"/>
  </g>
 </g>

</svg>