<svg data-logo="logo" xmlns="http://www.w3.org/2000/svg" viewBox="0 0 406 43">
        <g style="opacity: 1;" id="logogram" transform="translate(0, 1.5) rotate(0)"><path d="M65.1428 40C76.1885 40 85.1426 31.0456 85.1426 19.9999C85.1426 8.9543 76.1885 0 65.1428 0C54.0971 0 45.1427 8.9543 45.1427 19.9999C45.1427 31.0456 54.0971 40 65.1428 40Z" fill="#394149"></path><path d="M109.852 40C120.897 40 129.852 31.0456 129.852 19.9999C129.852 8.9543 120.897 0 109.852 0C98.8061 0 89.8517 8.9543 89.8517 19.9999C89.8517 31.0456 98.8061 40 109.852 40Z" fill="#394149"></path><path d="M40.4335 0H0.452637V39.9808H40.4335V0Z" fill="#394149"></path></g>
        <g style="opacity: 1;" id="logotype" transform="translate(136, 1)"><path fill="#919292" d="M13.64 33L8.31 33L8.31 7.54L14.12 7.54L22.17 20.42Q22.78 21.41 23.41 22.58Q24.05 23.74 24.70 25.16Q25.36 26.57 26.01 28.35L26.01 28.35L25.48 28.35Q25.36 26.93 25.27 25.33Q25.17 23.72 25.11 22.25Q25.04 20.78 25.04 19.76L25.04 19.76L25.04 7.54L30.37 7.54L30.37 33L24.54 33L17.23 21.31Q16.42 19.99 15.74 18.76Q15.06 17.52 14.31 16.01Q13.57 14.51 12.55 12.44L12.55 12.44L13.21 12.44Q13.31 14.29 13.42 15.98Q13.52 17.67 13.58 19.05Q13.64 20.42 13.64 21.29L13.64 21.29L13.64 33ZM41.13 33.38L41.13 33.38Q38.26 33.38 36.16 32.14Q34.06 30.90 32.92 28.68Q31.79 26.47 31.79 23.53L31.79 23.53Q31.79 20.56 32.92 18.35Q34.06 16.13 36.16 14.89Q38.26 13.65 41.13 13.65L41.13 13.65Q44.02 13.65 46.12 14.89Q48.21 16.13 49.35 18.35Q50.48 20.56 50.48 23.53L50.48 23.53Q50.48 26.47 49.35 28.68Q48.21 30.90 46.12 32.14Q44.02 33.38 41.13 33.38ZM41.13 29.34L41.13 29.34Q42.50 29.34 43.42 28.58Q44.35 27.82 44.81 26.50Q45.27 25.17 45.27 23.52L45.27 23.52Q45.27 21.82 44.81 20.51Q44.35 19.19 43.42 18.44Q42.50 17.69 41.13 17.69L41.13 17.69Q39.77 17.69 38.85 18.44Q37.94 19.19 37.48 20.51Q37.02 21.82 37.02 23.52L37.02 23.52Q37.02 25.17 37.48 26.50Q37.94 27.82 38.85 28.58Q39.77 29.34 41.13 29.34ZM74.11 33L57.91 33L57.91 7.54L63.13 7.54L63.13 28.68L74.11 28.68L74.11 33ZM83.85 33.38L83.85 33.38Q80.98 33.38 78.88 32.14Q76.78 30.90 75.64 28.68Q74.50 26.47 74.50 23.53L74.50 23.53Q74.50 20.56 75.64 18.35Q76.78 16.13 78.88 14.89Q80.98 13.65 83.85 13.65L83.85 13.65Q86.74 13.65 88.83 14.89Q90.93 16.13 92.06 18.35Q93.20 20.56 93.20 23.53L93.20 23.53Q93.20 26.47 92.06 28.68Q90.93 30.90 88.83 32.14Q86.74 33.38 83.85 33.38ZM83.85 29.34L83.85 29.34Q85.22 29.34 86.14 28.58Q87.07 27.82 87.53 26.50Q87.99 25.17 87.99 23.52L87.99 23.52Q87.99 21.82 87.53 20.51Q87.07 19.19 86.14 18.44Q85.22 17.69 83.85 17.69L83.85 17.69Q82.49 17.69 81.57 18.44Q80.66 19.19 80.20 20.51Q79.73 21.82 79.73 23.52L79.73 23.52Q79.73 25.17 80.20 26.50Q80.66 27.82 81.57 28.58Q82.49 29.34 83.85 29.34ZM102.97 40.55L102.97 40.55Q100.60 40.55 98.82 39.95Q97.04 39.34 95.93 38.28Q94.82 37.22 94.40 35.87L94.40 35.87L98.80 34.64Q99.04 35.17 99.55 35.67Q100.05 36.18 100.89 36.50Q101.73 36.83 102.96 36.83L102.96 36.83Q104.92 36.83 106.04 35.93Q107.16 35.03 107.16 33.14L107.16 33.14L107.16 29.62L106.77 29.62Q106.43 30.39 105.78 31.10Q105.13 31.82 104.08 32.27Q103.03 32.73 101.47 32.73L101.47 32.73Q99.32 32.73 97.56 31.72Q95.80 30.71 94.75 28.64Q93.69 26.57 93.69 23.41L93.69 23.41Q93.69 20.18 94.76 18.01Q95.83 15.84 97.60 14.75Q99.37 13.65 101.49 13.65L101.49 13.65Q103.09 13.65 104.19 14.19Q105.28 14.73 105.96 15.54Q106.63 16.35 106.97 17.11L106.97 17.11L107.20 17.11L107.20 13.89L112.24 13.89L112.24 32.85Q112.24 35.43 111.05 37.14Q109.86 38.86 107.78 39.71Q105.69 40.55 102.97 40.55ZM103.08 28.83L103.08 28.83Q104.39 28.83 105.31 28.18Q106.22 27.53 106.70 26.31Q107.18 25.09 107.18 23.38L107.18 23.38Q107.18 21.69 106.70 20.42Q106.22 19.16 105.31 18.46Q104.39 17.76 103.08 17.76L103.08 17.76Q101.73 17.76 100.81 18.48Q99.90 19.21 99.43 20.47Q98.96 21.74 98.96 23.38L98.96 23.38Q98.96 25.05 99.43 26.28Q99.90 27.50 100.82 28.16Q101.74 28.83 103.08 28.83ZM122.88 33.38L122.88 33.38Q120.01 33.38 117.91 32.14Q115.81 30.90 114.67 28.68Q113.53 26.47 113.53 23.53L113.53 23.53Q113.53 20.56 114.67 18.35Q115.81 16.13 117.91 14.89Q120.01 13.65 122.88 13.65L122.88 13.65Q125.77 13.65 127.86 14.89Q129.96 16.13 131.09 18.35Q132.23 20.56 132.23 23.53L132.23 23.53Q132.23 26.47 131.09 28.68Q129.96 30.90 127.86 32.14Q125.77 33.38 122.88 33.38ZM122.88 29.34L122.88 29.34Q124.25 29.34 125.17 28.58Q126.10 27.82 126.56 26.50Q127.02 25.17 127.02 23.52L127.02 23.52Q127.02 21.82 126.56 20.51Q126.10 19.19 125.17 18.44Q124.25 17.69 122.88 17.69L122.88 17.69Q121.52 17.69 120.60 18.44Q119.69 19.19 119.22 20.51Q118.76 21.82 118.76 23.52L118.76 23.52Q118.76 25.17 119.22 26.50Q119.69 27.82 120.60 28.58Q121.52 29.34 122.88 29.34ZM148.09 33.38L148.09 33.38Q145.21 33.38 143.11 32.14Q141.01 30.90 139.87 28.68Q138.74 26.47 138.74 23.53L138.74 23.53Q138.74 20.56 139.87 18.35Q141.01 16.13 143.11 14.89Q145.21 13.65 148.09 13.65L148.09 13.65Q150.97 13.65 153.07 14.89Q155.16 16.13 156.30 18.35Q157.43 20.56 157.43 23.53L157.43 23.53Q157.43 26.47 156.30 28.68Q155.16 30.90 153.07 32.14Q150.97 33.38 148.09 33.38ZM148.09 29.34L148.09 29.34Q149.45 29.34 150.38 28.58Q151.30 27.82 151.76 26.50Q152.22 25.17 152.22 23.52L152.22 23.52Q152.22 21.82 151.76 20.51Q151.30 19.19 150.38 18.44Q149.45 17.69 148.09 17.69L148.09 17.69Q146.72 17.69 145.80 18.44Q144.89 19.19 144.43 20.51Q143.97 21.82 143.97 23.52L143.97 23.52Q143.97 25.17 144.43 26.50Q144.89 27.82 145.80 28.58Q146.72 29.34 148.09 29.34ZM163.86 33L158.73 33L158.73 13.89L163.69 13.89L163.69 17.23L163.89 17.23Q164.42 15.45 165.66 14.54Q166.90 13.64 168.51 13.64L168.51 13.64Q168.90 13.64 169.35 13.68Q169.80 13.72 170.16 13.81L170.16 13.81L170.16 18.39Q169.82 18.27 169.17 18.20Q168.52 18.13 167.94 18.13L167.94 18.13Q166.78 18.13 165.84 18.64Q164.90 19.14 164.38 20.04Q163.86 20.93 163.86 22.13L163.86 22.13L163.86 33ZM176.84 7.54L182.05 7.54L182.05 33L176.84 33L176.84 7.54ZM189.40 33L184.27 33L184.27 13.89L189.02 13.89L189.28 18.64L188.91 18.64Q189.35 16.88 190.21 15.77Q191.08 14.66 192.24 14.13Q193.40 13.60 194.68 13.60L194.68 13.60Q196.75 13.60 198.01 14.91Q199.28 16.22 199.88 18.95L199.88 18.95L199.28 18.95Q199.71 17.12 200.67 15.94Q201.64 14.75 202.96 14.18Q204.29 13.60 205.74 13.60L205.74 13.60Q207.50 13.60 208.87 14.37Q210.25 15.14 211.04 16.59Q211.84 18.03 211.84 20.11L211.84 20.11L211.84 33L206.71 33L206.71 21.09Q206.71 19.46 205.83 18.68Q204.95 17.89 203.67 17.89L203.67 17.89Q202.71 17.89 202.00 18.31Q201.30 18.73 200.91 19.48Q200.53 20.23 200.53 21.24L200.53 21.24L200.53 33L195.57 33L195.57 20.95Q195.57 19.55 194.74 18.72Q193.91 17.89 192.60 17.89L192.60 17.89Q191.69 17.89 190.96 18.30Q190.24 18.71 189.82 19.51Q189.40 20.30 189.40 21.45L189.40 21.45L189.40 33ZM219.27 33.38L219.27 33.38Q217.46 33.38 216.02 32.74Q214.57 32.09 213.74 30.82Q212.91 29.55 212.91 27.65L212.91 27.65Q212.91 26.06 213.50 24.98Q214.09 23.91 215.11 23.26Q216.13 22.61 217.42 22.27Q218.71 21.93 220.13 21.79L220.13 21.79Q221.78 21.62 222.80 21.47Q223.82 21.33 224.29 21.01Q224.76 20.70 224.76 20.08L224.76 20.08L224.76 19.99Q224.76 19.17 224.42 18.61Q224.07 18.05 223.41 17.75Q222.74 17.45 221.77 17.45L221.77 17.45Q220.78 17.45 220.04 17.75Q219.31 18.05 218.84 18.54Q218.38 19.04 218.16 19.65L218.16 19.65L213.46 18.87Q213.96 17.21 215.10 16.05Q216.25 14.88 217.95 14.27Q219.65 13.65 221.77 13.65L221.77 13.65Q223.32 13.65 224.77 14.02Q226.23 14.39 227.38 15.16Q228.53 15.93 229.21 17.16Q229.88 18.39 229.88 20.13L229.88 20.13L229.88 33L225.03 33L225.03 30.35L224.86 30.35Q224.40 31.24 223.63 31.91Q222.86 32.59 221.78 32.98Q220.69 33.38 219.27 33.38ZM220.72 29.77L220.72 29.77Q221.94 29.77 222.85 29.29Q223.77 28.81 224.28 27.99Q224.79 27.17 224.79 26.16L224.79 26.16L224.79 24.10Q224.57 24.27 224.11 24.40Q223.65 24.54 223.08 24.64Q222.52 24.75 221.97 24.83Q221.42 24.92 221.00 24.97L221.00 24.97Q220.06 25.10 219.34 25.41Q218.62 25.72 218.23 26.22Q217.84 26.73 217.84 27.51L217.84 27.51Q217.84 28.25 218.21 28.75Q218.59 29.26 219.23 29.51Q219.87 29.77 220.72 29.77ZM240.46 40.55L240.46 40.55Q238.09 40.55 236.31 39.95Q234.53 39.34 233.42 38.28Q232.31 37.22 231.88 35.87L231.88 35.87L236.29 34.64Q236.53 35.17 237.03 35.67Q237.54 36.18 238.38 36.50Q239.21 36.83 240.44 36.83L240.44 36.83Q242.41 36.83 243.53 35.93Q244.65 35.03 244.65 33.14L244.65 33.14L244.65 29.62L244.25 29.62Q243.91 30.39 243.26 31.10Q242.61 31.82 241.56 32.27Q240.51 32.73 238.96 32.73L238.96 32.73Q236.80 32.73 235.04 31.72Q233.28 30.71 232.23 28.64Q231.18 26.57 231.18 23.41L231.18 23.41Q231.18 20.18 232.25 18.01Q233.32 15.84 235.09 14.75Q236.86 13.65 238.97 13.65L238.97 13.65Q240.58 13.65 241.67 14.19Q242.77 14.73 243.44 15.54Q244.12 16.35 244.46 17.11L244.46 17.11L244.68 17.11L244.68 13.89L249.72 13.89L249.72 32.85Q249.72 35.43 248.54 37.14Q247.35 38.86 245.26 39.71Q243.18 40.55 240.46 40.55ZM240.56 28.83L240.56 28.83Q241.88 28.83 242.79 28.18Q243.71 27.53 244.19 26.31Q244.67 25.09 244.67 23.38L244.67 23.38Q244.67 21.69 244.19 20.42Q243.71 19.16 242.79 18.46Q241.88 17.76 240.56 17.76L240.56 17.76Q239.21 17.76 238.30 18.48Q237.38 19.21 236.91 20.47Q236.44 21.74 236.44 23.38L236.44 23.38Q236.44 25.05 236.91 26.28Q237.38 27.50 238.31 28.16Q239.23 28.83 240.56 28.83ZM260.45 33.38L260.45 33.38Q257.53 33.38 255.41 32.18Q253.29 30.98 252.16 28.78Q251.02 26.57 251.02 23.55L251.02 23.55Q251.02 20.59 252.15 18.37Q253.28 16.15 255.34 14.90Q257.41 13.65 260.20 13.65L260.20 13.65Q262.08 13.65 263.70 14.25Q265.32 14.85 266.56 16.06Q267.79 17.26 268.48 19.07Q269.17 20.88 269.17 23.34L269.17 23.34L269.17 24.78L253.12 24.78L253.12 21.57L266.66 21.57L264.27 22.42Q264.27 20.93 263.81 19.83Q263.36 18.73 262.46 18.12Q261.56 17.52 260.23 17.52L260.23 17.52Q258.92 17.52 257.98 18.13Q257.05 18.75 256.57 19.80Q256.10 20.85 256.10 22.20L256.10 22.20L256.10 24.47Q256.10 26.13 256.65 27.26Q257.21 28.39 258.21 28.95Q259.21 29.51 260.54 29.51L260.54 29.51Q261.45 29.51 262.18 29.26Q262.92 29.00 263.44 28.50Q263.96 27.99 264.23 27.26L264.23 27.26L268.88 28.13Q268.42 29.70 267.27 30.89Q266.13 32.08 264.41 32.73Q262.69 33.38 260.45 33.38Z"></path></g>
        
      </svg>